<svg width="134" height="125" viewBox="0 0 134 125" fill="none" xmlns="http://www.w3.org/2000/svg">
<path fill-rule="evenodd" clip-rule="evenodd" d="M76.8561 82.84C76.6001 82.84 76.3441 82.7547 76.0881 82.584C75.9174 82.4133 75.8747 82.2853 75.9601 82.2C76.5574 81.432 77.0267 80.5787 77.3681 79.64C77.3849 79.6064 77.4016 79.5728 77.4183 79.539C77.4443 79.4863 77.4702 79.4335 77.4959 79.3804C74.6346 79.3581 71.6426 79.2313 68.5201 79H63.7201H61.7201H57.7201V78.04H61.7201V48.0329C60.4604 48.027 59.1324 48.024 57.7361 48.024H51.5921C49.2027 52.888 46.7281 57.6667 44.1681 62.36C41.6081 66.968 38.9627 70.7654 36.2321 73.752C34.0987 76.056 31.5387 77.9333 28.5521 79.384C25.5654 80.8347 22.5787 81.56 19.5921 81.56C16.9467 81.56 14.4294 80.792 12.0401 79.256C11.7473 79.0678 11.4636 78.8688 11.1888 78.6588C10.8469 78.4874 10.5067 78.3025 10.1681 78.104C7.77873 76.568 5.98673 74.264 4.79207 71.192C4.45073 70.0827 4.19473 68.9307 4.02407 67.736C3.8534 66.456 3.76807 65.2187 3.76807 64.024C3.76807 62.8293 3.9814 62.232 4.40807 62.232C4.83473 62.232 5.04807 62.5733 5.04807 63.256C5.04807 65.0727 5.27568 66.7493 5.7309 68.2859C5.67035 67.219 5.64007 66.1824 5.64007 65.176V63.512C5.64007 62.9147 5.68273 62.36 5.76807 61.848C5.93873 61.336 6.28007 61.08 6.79207 61.08C6.96273 61.08 7.04807 61.1653 7.04807 61.336C7.04807 61.848 7.0054 62.36 6.92007 62.872V64.408C6.92007 68.4187 7.9014 71.448 9.86407 73.496C11.9121 75.544 14.4294 76.568 17.4161 76.568C20.4027 76.568 23.3041 75.7147 26.1201 74.008C28.9361 72.3013 31.5387 70.1254 33.9281 67.48C35.8907 65.3467 37.8107 62.5733 39.6881 59.16C41.6507 55.7467 43.6561 52.0773 45.7041 48.152C42.9734 48.2373 40.1147 48.3653 37.1281 48.536C34.1414 48.6213 31.4107 48.8773 28.9361 49.304C28.1681 49.3893 27.9547 49.176 28.2961 48.664C28.6374 48.152 29.2774 47.512 30.2161 46.744C31.1547 45.976 32.1361 45.2933 33.1601 44.696C34.2694 44.0987 35.1654 43.7573 35.8481 43.672C37.2987 43.7573 39.0907 43.8427 41.2241 43.928C43.4427 43.928 45.6187 43.9707 47.7521 44.056C48.8146 42.1242 49.8498 40.1787 50.8576 38.2195C46.2112 34.1422 43.8881 28.781 43.8881 22.136C43.8881 19.1645 44.3638 16.4649 45.3152 14.0371C44.9436 14.1395 44.5772 14.2472 44.2161 14.36C41.4854 15.2133 39.5227 16.4933 38.3281 18.2C37.6454 19.224 37.3041 20.4613 37.3041 21.912C37.3041 23.448 37.6881 24.8987 38.4561 26.264C39.2241 27.6293 40.2054 28.6107 41.4001 29.208L41.6561 29.464C41.6561 29.72 41.4427 29.976 41.0161 30.232C40.6747 30.4027 40.2907 30.4453 39.8641 30.36C39.1814 29.9333 38.3281 29.2507 37.3041 28.312C36.3101 27.3181 35.3966 26.2839 34.5634 25.2096C34.8433 26.2641 35.3568 27.0849 36.1041 27.672C36.1894 27.7573 36.2321 27.8427 36.2321 27.928C36.2321 28.0987 36.0614 28.2693 35.7201 28.44C35.4641 28.6107 35.2081 28.6533 34.9521 28.568C34.1841 28.1413 33.2454 27.1173 32.1361 25.496C31.0267 23.7893 30.3441 22.3813 30.0881 21.272C29.8321 20.248 29.7041 19.3093 29.7041 18.456C29.7041 16.2373 30.4294 14.5307 31.8801 13.336C33.3307 12.056 35.1654 11.16 37.3841 10.648C39.6027 10.0507 41.8641 9.70935 44.1681 9.62401C45.5182 9.524 46.7804 9.4533 47.9547 9.41189C48.6105 8.57327 49.3456 7.77998 50.1601 7.03201C54.3414 3.10668 60.6134 1.14401 68.9761 1.14401C77.4241 1.14401 86.0001 2.59468 94.7041 5.49601L94.1921 6.77601C86.4267 3.78934 79.0881 2.29601 72.1761 2.29601C65.3494 2.29601 60.0161 3.74668 56.1761 6.64801C55.0929 7.46641 54.1625 8.37308 53.3848 9.36801H56.2481C58.8081 9.28268 61.0267 9.24001 62.9041 9.24001H75.4031C76.7001 9.14631 77.8084 9.01831 78.7281 8.85601H79.1121C79.1974 8.77068 79.2827 8.72801 79.3681 8.72801C79.8801 8.72801 80.1361 8.89868 80.1361 9.24001C80.1361 9.58135 79.9654 9.92268 79.6241 10.264C79.3681 10.52 79.1547 10.648 78.9841 10.648C78.6642 10.679 78.3469 10.723 78.032 10.7802C77.8386 11.0932 77.6182 11.4062 77.371 11.7192C78.1377 11.7091 78.8994 11.704 79.6561 11.704C80.6219 11.704 81.6035 11.7395 82.6009 11.8104C91.5022 11.967 97.7637 13.8869 101.385 17.5704C103.335 14.3977 104.87 12.0903 105.992 10.648C106.049 10.6246 106.106 10.6009 106.164 10.5771C106.202 10.5611 106.241 10.545 106.28 10.5289C108.065 7.49581 109.82 5.18886 111.544 3.60801C112.568 2.66934 113.805 1.94401 115.256 1.43201C116.707 0.834679 118.072 0.536011 119.352 0.536011C120.547 0.536011 121.571 0.834679 122.424 1.43201C123.277 1.94401 123.661 2.79735 123.576 3.99201L123.448 8.60001C123.448 8.68535 123.235 8.77068 122.808 8.85601C122.381 8.94134 122.211 8.94134 122.296 8.85601C122.361 8.01349 122.13 7.36786 121.605 6.91911C121.372 6.93038 121.117 6.93601 120.84 6.93601C119.987 6.93601 119.091 7.10668 118.152 7.44801C117.213 7.70401 116.019 8.60001 114.568 10.136C113.373 11.3307 111.795 13.3787 109.832 16.28C108.534 18.2264 107.155 20.4175 105.695 22.8532C107.443 25.1525 108.876 28.0601 109.992 31.576C111.272 35.608 111.912 40.504 111.912 46.264C111.912 51.7814 111.031 56.7703 109.27 61.2307C109.374 61.0931 109.476 60.9576 109.576 60.824C109.832 60.4827 110.003 60.312 110.088 60.312C110.344 60.312 110.472 60.6107 110.472 61.208C110.472 61.72 110.344 62.1893 110.088 62.616C108.613 64.7123 106.714 67.1265 104.391 69.8587L109.816 79H100.888L98.7084 75.319C98.5358 75.4511 98.3619 75.5815 98.1868 75.7105C97.4426 77.8201 96.367 79.7593 94.9601 81.528C91.9734 85.2827 88.3467 87.8427 84.0801 89.208C79.8987 90.488 74.9921 91.128 69.3601 91.128C58.8641 91.128 49.9041 88.5253 42.4801 83.32L43.1201 82.296C45.9361 84.5147 49.5627 86.3493 54.0001 87.8C58.5227 89.1654 63.1307 89.848 67.8241 89.848C74.7361 89.848 80.6241 88.2693 85.4881 85.112C87.815 83.5875 89.5949 81.7328 90.8279 79.5481C89.0571 80.036 87.1572 80.28 85.1281 80.28C83.5865 80.28 82.1609 79.9613 80.8511 79.3237C80.6875 79.3319 80.5235 79.3393 80.359 79.3458C80.0334 79.6101 79.6764 79.9215 79.2881 80.28C78.2641 81.3894 77.6241 82.1573 77.3681 82.584C77.1974 82.7547 77.0267 82.84 76.8561 82.84ZM80.1121 41.336C81.8293 42.0899 83.4746 42.8952 85.048 43.752C85.9505 43.5496 86.7026 43.3096 87.3041 43.032C89.6081 38.5947 91.9547 34.2 94.3441 29.848C95.3328 28.047 96.2924 26.3264 97.2227 24.6862C96.8704 22.191 96.0737 20.0767 94.8325 18.3434C93.3665 17.066 91.6997 16.0049 89.8321 15.16C87.1441 13.88 85.0001 13.144 83.4001 12.952C82.7245 12.8709 82.0033 12.807 81.2365 12.7602C79.6002 12.7631 77.9267 12.8094 76.216 12.899C76.0281 13.0197 75.8575 13.08 75.7041 13.08C74.9484 13.0044 73.8248 13.1296 72.3331 13.4555C72.1167 13.6265 71.9016 13.8051 71.6881 13.9913V33.292C72.1291 34.9864 72.593 36.7153 73.0799 38.4786C75.424 39.3544 77.768 40.3069 80.1121 41.336ZM61.7201 28.6996C61.0233 30.0089 60.2953 31.3806 59.5362 32.8146C59.7355 32.9259 59.9382 33.0356 60.1441 33.144C60.6613 33.4026 61.1866 33.6585 61.7201 33.9117V28.6996ZM53.5121 44.312C54.0192 43.3294 54.544 42.3174 55.0865 41.2759C56.9137 42.4365 58.8517 43.5339 60.9005 44.568H59.4001H57.4801C56.4561 44.4827 55.1334 44.3973 53.5121 44.312ZM77.0713 51.7024C78.702 52.4639 80.2596 53.2568 81.744 54.081C81.099 55.3901 80.4777 56.6564 79.8801 57.88C79.7519 58.1556 79.6263 58.4265 79.5034 58.6925C79.0087 57.3382 78.5102 55.958 78.0081 54.552C77.6909 53.6005 77.3786 52.6507 77.0713 51.7024ZM85.6401 61.208C84.577 63.6664 83.7984 65.685 83.3044 67.2639C84.1998 65.1071 85.166 62.6495 86.2029 59.8911C86.0099 60.3361 85.8223 60.7751 85.6401 61.208ZM84.3481 77.0387C84.7105 77.2673 85.1401 77.4383 85.6367 77.5518C87.4178 77.0409 89.0722 76.3716 90.6001 75.544C91.2726 75.1797 91.9573 74.7419 92.6544 74.2304C92.8262 73.1734 92.9121 72.0646 92.9121 70.904C92.9121 66.376 91.4855 62.5049 88.6322 59.2909C87.6882 61.6748 86.8775 63.6365 86.2001 65.176C85.3467 66.968 84.9201 68.7173 84.9201 70.424V71.192C84.9201 71.448 84.9627 71.704 85.0481 71.96C85.0481 72.3013 85.0907 72.6853 85.1761 73.112C85.3467 73.5387 85.4747 73.9653 85.5601 74.392V74.648C85.6454 74.7333 85.6881 74.8614 85.6881 75.032C85.6881 75.7147 85.3467 76.312 84.6641 76.824C84.56 76.8969 84.4547 76.9684 84.3481 77.0387ZM77.9363 78.4202C78.0613 78.1318 78.1818 77.8389 78.2979 77.5415C78.2706 77.5159 78.2433 77.49 78.2161 77.464C76.3387 75.5014 75.4001 73.1547 75.4001 70.424C75.4001 69.0587 75.6561 67.6933 76.1681 66.328L76.1933 66.2637C75.5427 63.6419 74.8249 60.9753 74.0401 58.264C73.2863 55.536 72.5023 52.8079 71.6881 50.0799V78.04H74.8081V78.4018C75.4233 78.4166 76.0793 78.424 76.7761 78.424C77.183 78.424 77.5698 78.4228 77.9363 78.4202ZM100.837 63.8705C102.908 58.9499 103.944 52.8251 103.944 45.496C103.944 42.3558 103.744 39.4422 103.342 36.7554C102.92 37.7503 102.422 38.7118 101.848 39.64C100.166 42.3603 97.5484 44.3734 93.9939 45.6794C93.5359 46.8189 93.0896 47.9349 92.6549 49.0275C94.2455 50.6324 95.6112 52.5486 96.7521 54.776C97.5954 56.3824 98.2403 58.2061 98.6868 60.2471L100.837 63.8705ZM61.7201 16.8253V12.76H57.7201V12.427C56.2831 12.4904 54.8111 12.5801 53.3041 12.696C52.661 12.7455 52.0292 12.8061 51.4084 12.8779C50.7469 14.6208 50.4161 16.5548 50.4161 18.68C50.4161 22.8226 51.8501 26.3425 54.7182 29.2397C55.2679 27.9065 55.8205 26.5733 56.3761 25.24C57.6501 22.0124 59.4315 19.2075 61.7201 16.8253ZM18.272 123.896C18.336 123.939 18.4 123.96 18.464 123.96C18.5067 123.96 18.5493 123.939 18.592 123.896C18.656 123.789 18.816 123.597 19.072 123.32C19.3493 123.064 19.5627 122.904 19.712 122.84C19.968 122.733 20.2027 122.605 20.416 122.456C20.5867 122.328 20.672 122.179 20.672 122.008C20.672 121.965 20.6613 121.933 20.64 121.912V121.848C20.6187 121.741 20.5867 121.635 20.544 121.528C20.5227 121.421 20.512 121.325 20.512 121.24C20.4907 121.176 20.48 121.112 20.48 121.048V120.856C20.48 120.429 20.5867 119.992 20.8 119.544C21.0347 119.011 21.3333 118.275 21.696 117.336C22.0587 116.397 22.464 115.373 22.912 114.264C23.3813 113.133 23.872 112.013 24.384 110.904C24.896 109.773 25.4187 108.739 25.952 107.8C26.4853 106.861 26.9973 106.104 27.488 105.528C28 104.952 28.48 104.675 28.928 104.696C29.0773 104.696 29.2693 104.76 29.504 104.888C29.7387 104.995 29.8453 105.187 29.824 105.464C29.8027 105.485 29.8453 105.485 29.952 105.464C30.0587 105.443 30.112 105.421 30.112 105.4L30.144 104.248C30.1653 103.949 30.0693 103.736 29.856 103.608C29.6427 103.459 29.3867 103.384 29.088 103.384C28.768 103.384 28.4267 103.459 28.064 103.608C27.7013 103.736 27.392 103.917 27.136 104.152C26.624 104.621 26.1013 105.347 25.568 106.328C25.056 107.309 24.5333 108.429 24 109.688C23.488 110.925 22.9867 112.205 22.496 113.528C22.0267 114.851 21.5787 116.099 21.152 117.272C20.7253 118.445 20.3413 119.437 20 120.248C19.5947 119.203 19.1787 118.083 18.752 116.888C18.3467 115.672 17.9733 114.467 17.632 113.272C17.2907 112.056 16.992 110.904 16.736 109.816C16.5013 108.728 16.352 107.779 16.288 106.968C16.4587 106.84 16.7573 106.733 17.184 106.648C17.632 106.541 17.9627 106.499 18.176 106.52C18.2613 106.52 18.368 106.445 18.496 106.296C18.6453 106.125 18.7627 105.955 18.848 105.784C18.9547 105.613 18.9547 105.539 18.848 105.56H14.976C14.5067 105.56 13.952 105.571 13.312 105.592C12.672 105.592 12 105.635 11.296 105.72C10.6133 105.784 9.97333 105.901 9.376 106.072C8.77867 106.243 8.288 106.488 7.904 106.808C7.54133 107.128 7.36 107.544 7.36 108.056C7.36 108.312 7.40267 108.568 7.488 108.824C7.552 109.016 7.68 109.251 7.872 109.528C8.08533 109.805 8.32 110.072 8.576 110.328C8.832 110.563 9.04533 110.733 9.216 110.84C9.32267 110.861 9.41867 110.851 9.504 110.808C9.61067 110.744 9.664 110.68 9.664 110.616L9.6 110.552C9.30133 110.403 9.056 110.157 8.864 109.816C8.672 109.475 8.576 109.112 8.576 108.728C8.576 108.365 8.66133 108.056 8.832 107.8C9.13067 107.373 9.62133 107.053 10.304 106.84C10.9867 106.627 11.744 106.488 12.576 106.424C13.408 106.36 14.1973 106.328 14.944 106.328H16.704C15.936 106.477 15.264 106.851 14.688 107.448C14.112 108.045 13.664 108.749 13.344 109.56C12.8107 110.84 12.288 112.12 11.776 113.4C11.264 114.68 10.6773 115.917 10.016 117.112C9.35467 118.307 8.544 119.437 7.584 120.504C6.98667 121.144 6.31467 121.645 5.568 122.008C4.82133 122.371 4.07467 122.552 3.328 122.552C2.56 122.552 1.89867 122.221 1.344 121.56C0.789333 120.899 0.512 120.067 0.512 119.064C0.512 118.893 0.458667 118.808 0.352 118.808C0.245333 118.808 0.192 118.957 0.192 119.256C0.192 119.555 0.213333 119.864 0.256 120.184C0.298667 120.483 0.362667 120.771 0.448 121.048C0.746667 121.816 1.19467 122.392 1.792 122.776C2.41067 123.139 3.05067 123.32 3.712 123.32C4.20267 123.32 4.74667 123.224 5.344 123.032C5.94133 122.861 6.51733 122.627 7.072 122.328C7.62667 122.008 8.064 121.645 8.384 121.24C9.06667 120.429 9.68533 119.533 10.24 118.552C10.816 117.549 11.328 116.536 11.776 115.512C12.2453 114.467 12.6613 113.464 13.024 112.504C13.408 111.523 13.7387 110.669 14.016 109.944C14.08 109.752 14.1867 109.453 14.336 109.048C14.5067 108.643 14.6667 108.387 14.816 108.28C15.2853 109.752 15.776 111.309 16.288 112.952C16.8213 114.573 17.312 116.195 17.76 117.816C18.2293 119.437 18.6027 120.995 18.88 122.488C18.7947 122.723 18.6987 122.947 18.592 123.16C18.5067 123.395 18.3893 123.608 18.24 123.8C18.2187 123.821 18.2293 123.853 18.272 123.896ZM25.0145 122.776C25.6118 123.139 26.2412 123.32 26.9025 123.32C27.6492 123.32 28.4278 123.117 29.2385 122.712C30.0492 122.307 30.7212 121.816 31.2545 121.24C31.9798 120.472 32.6412 119.576 33.2385 118.552C33.8358 117.507 34.3798 116.429 34.8705 115.32C35.3825 114.211 35.8412 113.155 36.2465 112.152C36.6518 111.149 37.0145 110.285 37.3345 109.56L37.4002 109.45C37.4325 109.507 37.4664 109.565 37.502 109.624C37.7793 110.029 38.0247 110.285 38.238 110.392C38.2807 110.413 38.334 110.403 38.398 110.36C38.4833 110.317 38.526 110.275 38.526 110.232C38.526 110.189 38.5153 110.168 38.494 110.168C38.1527 109.955 37.982 109.603 37.982 109.112C37.982 108.92 38.014 108.728 38.078 108.536C38.1052 108.455 38.1342 108.373 38.1652 108.292C38.5102 107.859 38.8946 107.493 39.3185 107.192C39.4706 107.079 39.6187 106.977 39.7629 106.886C40.2345 106.698 40.7608 106.544 41.342 106.424C42.0887 106.275 42.846 106.168 43.614 106.104C44.4033 106.019 45.1287 105.976 45.79 105.976C45.9393 105.976 46.078 105.987 46.206 106.008H46.59C46.2273 106.136 45.854 106.317 45.47 106.552C45.1073 106.765 44.8513 107.011 44.702 107.288C44.51 107.651 44.222 108.237 43.838 109.048C43.454 109.859 43.0167 110.701 42.526 111.576C42.014 112.515 41.502 113.464 40.99 114.424C40.478 115.363 39.9767 116.301 39.486 117.24C39.0807 118.008 38.654 118.776 38.206 119.544C37.7793 120.291 37.342 121.037 36.894 121.784C36.6807 122.189 36.4033 122.531 36.062 122.808C35.7207 123.064 35.3153 123.235 34.846 123.32C34.7607 123.363 34.7607 123.416 34.846 123.48C34.9313 123.565 35.0487 123.608 35.198 123.608C35.2833 123.608 35.3473 123.597 35.39 123.576C35.8167 123.427 36.2007 123.235 36.542 123C36.8833 122.765 37.1607 122.605 37.374 122.52C37.5873 122.413 37.8007 122.36 38.014 122.36C38.2487 122.36 38.4513 122.403 38.622 122.488C38.7927 122.573 38.9633 122.616 39.134 122.616C39.198 122.616 39.23 122.584 39.23 122.52C39.23 122.477 39.2193 122.445 39.198 122.424C39.1127 122.232 39.1553 121.869 39.326 121.336C39.518 120.803 39.774 120.195 40.094 119.512C40.414 118.829 40.7553 118.147 41.118 117.464C41.4807 116.76 41.8113 116.141 42.11 115.608C42.4087 115.053 42.6113 114.669 42.718 114.456C43.1233 113.667 43.55 112.824 43.998 111.928C44.446 111.011 44.9153 110.115 45.406 109.24C45.8967 108.344 46.4087 107.544 46.942 106.84C47.1767 106.541 47.5287 106.339 47.998 106.232C48.4887 106.125 48.9367 106.072 49.342 106.072H49.662C49.7687 106.072 49.8647 106.083 49.95 106.104C50.6327 106.189 51.1553 106.509 51.518 107.064C51.8807 107.619 52.062 108.259 52.062 108.984C52.062 109.24 52.0407 109.507 51.998 109.784C51.9767 110.04 51.9127 110.296 51.806 110.552C51.4647 111.576 51.0487 112.365 50.558 112.92C50.0673 113.475 49.502 113.869 48.862 114.104C48.2433 114.317 47.5287 114.445 46.718 114.488C45.9287 114.509 45.0327 114.52 44.03 114.52C43.9233 114.52 43.7847 114.595 43.614 114.744C43.4647 114.872 43.3367 115.011 43.23 115.16L43.07 115.352C43.2193 115.629 43.4327 116.088 43.71 116.728C44.0087 117.368 44.3927 118.115 44.862 118.968C45.3313 119.821 45.9073 120.717 46.59 121.656C47.1447 122.381 47.6887 122.904 48.222 123.224C48.7767 123.565 49.3207 123.736 49.854 123.736C50.75 123.736 51.646 123.341 52.542 122.552C53.438 121.741 54.3767 120.664 55.358 119.32C55.486 119.149 55.55 118.979 55.55 118.808C55.55 118.68 55.518 118.616 55.454 118.616C55.4113 118.616 55.358 118.669 55.294 118.776C54.9953 119.181 54.59 119.661 54.078 120.216C53.5873 120.749 53.0327 121.219 52.414 121.624C51.8167 122.029 51.1767 122.232 50.494 122.232C50.0673 122.232 49.63 122.125 49.182 121.912C48.734 121.699 48.2967 121.325 47.87 120.792C47.0593 119.789 46.366 118.787 45.79 117.784C45.2353 116.781 44.8193 115.981 44.542 115.384C45.2247 115.341 45.9713 115.256 46.782 115.128C47.614 115 48.414 114.808 49.182 114.552C49.95 114.275 50.6113 113.944 51.166 113.56C51.5073 113.325 51.806 113.08 52.062 112.824C52.318 112.568 52.5527 112.301 52.766 112.024C53.3847 111.235 53.694 110.253 53.694 109.08C53.694 108.312 53.5127 107.629 53.15 107.032C52.8727 106.584 52.478 106.253 51.966 106.04C51.454 105.827 50.8887 105.688 50.27 105.624C49.6513 105.56 49.054 105.528 48.478 105.528C48.222 105.528 47.9767 105.539 47.742 105.56H47.102C46.3127 105.56 45.4487 105.571 44.51 105.592H42.078C41.6808 105.592 41.225 105.609 40.7104 105.642L38.5185 105.656C38.1772 105.656 37.7398 105.635 37.2065 105.592C36.6732 105.549 36.1185 105.528 35.5425 105.528C34.9452 105.528 34.3585 105.571 33.7825 105.656C33.2278 105.741 32.7905 105.923 32.4705 106.2C32.1932 106.456 32.0225 106.755 31.9585 107.096C31.9158 107.437 31.9052 107.715 31.9265 107.928C31.9478 108.077 32.0332 108.301 32.1825 108.6C32.3532 108.899 32.5345 109.208 32.7265 109.528C32.9185 109.827 33.0785 110.093 33.2065 110.328L33.5265 110.072C33.5052 110.008 33.4412 109.837 33.3345 109.56C33.2278 109.261 33.1638 109.027 33.1425 108.856C33.0998 108.28 33.2705 107.821 33.6545 107.48C34.0385 107.139 34.5185 106.893 35.0945 106.744C35.6705 106.595 36.2358 106.499 36.7905 106.456C37.1264 106.431 37.4188 106.413 37.6677 106.403C37.5873 106.46 37.5107 106.52 37.438 106.584C37.0753 106.883 36.894 107.309 36.894 107.864C36.894 108.077 36.926 108.312 36.99 108.568C36.9985 108.596 37.0078 108.624 37.0179 108.653C36.8415 108.945 36.6804 109.247 36.5345 109.56C35.9585 110.819 35.3825 112.035 34.8065 113.208C34.2518 114.36 33.6332 115.491 32.9505 116.6C32.2678 117.688 31.4465 118.765 30.4865 119.832C29.8892 120.493 29.2385 121.037 28.5345 121.464C27.8305 121.891 27.1052 122.104 26.3585 122.104C25.6118 122.104 24.9825 121.848 24.4705 121.336C23.9798 120.824 23.7345 120.067 23.7345 119.064C23.7345 118.893 23.6705 118.808 23.5425 118.808C23.4358 118.808 23.3825 118.957 23.3825 119.256C23.3825 119.555 23.4038 119.864 23.4465 120.184C23.4892 120.483 23.5638 120.771 23.6705 121.048C23.9692 121.816 24.4172 122.392 25.0145 122.776ZM54.096 123.544C54.2027 123.587 54.2773 123.608 54.32 123.608C54.64 123.608 54.9707 123.491 55.312 123.256C55.6533 123.043 56.0053 122.829 56.368 122.616C56.7307 122.381 57.0933 122.264 57.456 122.264C57.6267 122.264 57.7867 122.296 57.936 122.36C58.1067 122.403 58.2667 122.467 58.416 122.552C59.0773 122.893 59.7813 123.139 60.528 123.288C61.296 123.437 62.0427 123.512 62.768 123.512C67.4613 123.512 71.1093 121.56 73.712 117.656C74.3307 116.739 74.8427 115.704 75.248 114.552C75.6747 113.379 75.888 112.237 75.888 111.128C75.888 109.912 75.6427 108.931 75.152 108.184C74.6827 107.437 74.0533 106.861 73.264 106.456C72.4747 106.051 71.5893 105.784 70.608 105.656C69.648 105.507 68.6667 105.432 67.664 105.432C66.6187 105.432 65.5627 105.464 64.496 105.528C63.4293 105.571 62.3627 105.592 61.296 105.592C60.912 105.592 60.4213 105.613 59.824 105.656C59.248 105.677 58.672 105.752 58.096 105.88C57.52 106.008 57.0293 106.232 56.624 106.552C56.24 106.851 56.048 107.288 56.048 107.864C56.048 108.099 56.08 108.333 56.144 108.568C56.1867 108.675 56.2827 108.888 56.432 109.208C56.6027 109.507 56.784 109.784 56.976 110.04C57.168 110.296 57.328 110.424 57.456 110.424C57.4987 110.424 57.552 110.403 57.616 110.36C57.68 110.317 57.712 110.275 57.712 110.232C57.712 110.189 57.616 110.093 57.424 109.944C57.232 109.795 57.136 109.507 57.136 109.08C57.136 108.717 57.2427 108.344 57.456 107.96C57.6907 107.533 58.1173 107.192 58.736 106.936C59.376 106.68 60.1013 106.488 60.912 106.36C61.7227 106.232 62.4907 106.147 63.216 106.104C63.9627 106.04 64.5493 106.008 64.976 106.008H65.744C65.4027 106.115 65.04 106.285 64.656 106.52C64.2933 106.733 64.0267 106.989 63.856 107.288C63.7067 107.523 63.568 107.768 63.44 108.024L63.12 108.792L62.416 110.2C62.1813 110.669 61.936 111.128 61.68 111.576C60.7627 113.283 59.8453 115 58.928 116.728C58.0107 118.435 57.0507 120.12 56.048 121.784C55.856 122.125 55.6213 122.424 55.344 122.68C55.088 122.915 54.7787 123.096 54.416 123.224C54.2758 123.264 54.2014 123.276 54.1928 123.26C54.1973 123.257 54.197 123.256 54.192 123.256C54.192 123.257 54.1923 123.258 54.1928 123.26C54.1784 123.267 54.1141 123.287 54 123.32L53.968 123.352C53.9467 123.373 53.936 123.395 53.936 123.416C53.936 123.48 53.9893 123.523 54.096 123.544ZM66.864 122.136C65.4773 122.755 63.984 123.064 62.384 123.064C61.9147 123.064 61.4133 123.021 60.88 122.936C60.3467 122.829 59.8773 122.627 59.472 122.328C59.28 122.157 59.0987 121.976 58.928 121.784C58.7573 121.592 58.672 121.357 58.672 121.08C58.672 120.931 58.6933 120.803 58.736 120.696C58.7787 120.568 58.8213 120.451 58.864 120.344L59.312 119.448C59.4827 119.128 59.6427 118.819 59.792 118.52C60.4747 117.155 61.168 115.8 61.872 114.456C62.32 113.581 62.7573 112.696 63.184 111.8C63.632 110.883 64.1013 109.997 64.592 109.144C64.8267 108.76 65.0613 108.365 65.296 107.96C65.552 107.555 65.8187 107.181 66.096 106.84C66.3733 106.52 66.7253 106.317 67.152 106.232C67.6 106.147 68.0267 106.104 68.432 106.104C70.0747 106.104 71.3973 106.563 72.4 107.48C73.424 108.376 73.936 109.656 73.936 111.32C73.936 112.045 73.84 112.781 73.648 113.528C73.4773 114.275 73.2533 114.989 72.976 115.672C72.3787 117.123 71.5573 118.413 70.512 119.544C69.4667 120.653 68.2507 121.517 66.864 122.136ZM79.4392 123.32C80.1432 123.363 80.8366 123.384 81.5192 123.384C82.7353 123.384 83.8446 123.331 84.8473 123.224C85.8499 123.139 86.5752 123.032 87.0233 122.904C87.6419 122.712 88.2606 122.243 88.8792 121.496C89.4198 120.825 89.9767 120.138 90.5499 119.434C90.5356 119.576 90.5285 119.72 90.5285 119.864V120.248C90.5498 120.376 90.5712 120.493 90.5925 120.6C90.8058 121.453 91.2218 122.136 91.8405 122.648C92.4805 123.16 93.2058 123.523 94.0165 123.736C94.8485 123.971 95.6378 124.088 96.3845 124.088C97.1952 124.088 98.0058 123.949 98.8165 123.672C99.6272 123.395 100.374 123.011 101.057 122.52C101.76 122.008 102.315 121.411 102.721 120.728C103.147 120.045 103.361 119.288 103.361 118.456C103.361 117.88 103.254 117.315 103.04 116.76C102.721 115.928 102.272 115.16 101.697 114.456C101.142 113.731 100.576 113.027 100.001 112.344C99.4245 111.661 98.9765 110.936 98.6565 110.168C98.4858 109.763 98.4005 109.357 98.4005 108.952C98.4005 108.141 98.7098 107.395 99.3285 106.712C99.9472 106.029 100.843 105.688 102.017 105.688C102.592 105.688 103.083 105.773 103.489 105.944C103.894 106.115 104.225 106.317 104.48 106.552C104.758 106.765 104.896 107.021 104.896 107.32C104.918 107.597 104.928 107.853 104.928 108.088C104.928 108.451 104.854 108.856 104.704 109.304C104.555 109.752 104.438 110.061 104.353 110.232C104.395 110.296 104.491 110.307 104.641 110.264C104.811 110.2 104.918 110.157 104.961 110.136C105.003 109.965 105.142 109.656 105.377 109.208C105.611 108.76 105.825 108.397 106.017 108.12C106.187 107.885 106.272 107.555 106.272 107.128C106.272 106.829 106.209 106.584 106.081 106.392C105.632 105.901 105.131 105.549 104.576 105.336C104.022 105.123 103.446 105.016 102.849 105.016C101.974 105.016 101.11 105.229 100.257 105.656C99.4245 106.061 98.7525 106.605 98.2405 107.288C97.7285 108.056 97.4725 108.856 97.4725 109.688C97.4725 110.477 97.6752 111.256 98.0805 112.024C98.5498 112.877 99.0618 113.752 99.6165 114.648C100.192 115.523 100.651 116.419 100.993 117.336C101.248 117.997 101.377 118.659 101.377 119.32C101.377 120.408 101.024 121.325 100.321 122.072C99.6378 122.819 98.6672 123.192 97.4085 123.192C96.4912 123.192 95.5525 122.979 94.5925 122.552C93.6538 122.104 92.9178 121.507 92.3845 120.76C92.1712 120.461 91.9898 120.109 91.8405 119.704C91.7125 119.277 91.6485 118.861 91.6485 118.456C91.6485 118.157 91.6912 117.88 91.7765 117.624C91.8832 117.347 92.0432 117.101 92.2565 116.888C92.3418 116.845 92.3418 116.781 92.2565 116.696C92.1925 116.589 92.1392 116.536 92.0965 116.536H92.0645C91.6378 116.856 91.2752 117.325 90.9765 117.944C90.8595 118.186 90.7654 118.432 90.6942 118.681C90.6732 118.686 90.6442 118.707 90.6073 118.744C89.8179 119.747 88.8899 120.547 87.8232 121.144C86.7779 121.72 85.6472 122.136 84.4313 122.392C83.2366 122.627 82.0206 122.744 80.7832 122.744C79.8873 122.723 79.1299 122.595 78.5113 122.36C77.8926 122.104 77.5833 121.645 77.5833 120.984C77.5833 120.6 77.6793 120.152 77.8712 119.64C78.0632 119.107 78.2766 118.595 78.5113 118.104C78.7673 117.592 78.9806 117.176 79.1513 116.856C79.3859 116.429 79.5779 116.056 79.7272 115.736C79.8979 115.416 80.0899 115.064 80.3033 114.68C80.3886 114.531 80.5379 114.445 80.7513 114.424C81.0286 114.403 81.2846 114.392 81.5192 114.392H82.1913C83.0659 114.392 83.8552 114.413 84.5592 114.456C85.2846 114.499 86.1699 114.52 87.2152 114.52C87.5566 114.52 87.8552 114.403 88.1113 114.168C88.3886 113.912 88.5806 113.667 88.6872 113.432C88.8153 113.176 88.8153 113.048 88.6872 113.048C88.6659 113.048 88.6019 113.08 88.4953 113.144C88.3246 113.229 88.0686 113.304 87.7272 113.368C87.4072 113.432 87.0872 113.475 86.7673 113.496C86.4686 113.517 86.2446 113.539 86.0953 113.56C85.4339 113.581 84.6659 113.581 83.7913 113.56C82.9379 113.539 82.1379 113.528 81.3913 113.528C81.1992 113.528 81.1032 113.464 81.1032 113.336C81.1032 113.272 81.1139 113.219 81.1353 113.176C81.7326 112.152 82.3512 111.075 82.9912 109.944C83.6526 108.792 84.3353 107.725 85.0393 106.744C85.3379 106.36 85.9139 106.136 86.7673 106.072C87.0659 106.051 87.3539 106.04 87.6312 106.04C87.9299 106.019 88.2179 106.008 88.4953 106.008C89.2633 106.008 89.8286 106.061 90.1913 106.168C90.5752 106.296 90.8313 106.52 90.9593 106.84C91.1086 107.139 91.1833 107.48 91.1833 107.864C91.1833 108.291 91.1299 108.717 91.0233 109.144C90.9806 109.336 91.0553 109.4 91.2473 109.336C91.4393 109.251 91.5779 109.123 91.6633 108.952C91.8552 108.589 92.0579 108.195 92.2713 107.768C92.5059 107.32 92.6233 106.925 92.6233 106.584C92.6233 106.307 92.5166 106.072 92.3033 105.88C92.1113 105.688 91.7486 105.581 91.2152 105.56C90.7459 105.517 90.2659 105.496 89.7753 105.496H88.3353C87.2259 105.496 86.1059 105.517 84.9753 105.56C83.8446 105.581 82.7139 105.592 81.5833 105.592C81.1353 105.592 80.6233 105.613 80.0472 105.656C79.4713 105.677 78.9059 105.763 78.3512 105.912C77.7966 106.04 77.3379 106.264 76.9753 106.584C76.6126 106.883 76.4313 107.309 76.4313 107.864C76.4313 108.077 76.4632 108.312 76.5273 108.568C76.5912 108.845 76.7619 109.197 77.0393 109.624C77.3166 110.029 77.5512 110.285 77.7432 110.392C77.8073 110.413 77.8712 110.403 77.9352 110.36C78.0206 110.317 78.0632 110.275 78.0632 110.232C78.0632 110.189 78.0526 110.168 78.0312 110.168C77.6899 109.955 77.5192 109.603 77.5192 109.112C77.5192 108.92 77.5512 108.728 77.6152 108.536C77.6793 108.344 77.7539 108.152 77.8392 107.96C78.0739 107.533 78.4686 107.203 79.0232 106.968C79.5993 106.712 80.2393 106.531 80.9433 106.424C81.6686 106.296 82.3726 106.211 83.0553 106.168C83.7592 106.125 84.3353 106.093 84.7832 106.072C84.3993 106.157 84.0259 106.36 83.6633 106.68C83.3006 106.979 83.0232 107.277 82.8313 107.576C82.4259 108.216 82.0206 108.888 81.6152 109.592C81.2099 110.296 80.8792 110.883 80.6233 111.352C79.7913 112.824 78.9486 114.296 78.0953 115.768C77.2419 117.219 76.4099 118.68 75.5993 120.152C75.2579 120.749 75.0872 121.261 75.0872 121.688C75.0872 122.541 75.8446 123.032 77.3593 123.16C78.0419 123.245 78.7353 123.299 79.4392 123.32ZM105.51 123.064C106.107 123.448 106.737 123.64 107.398 123.64C108.145 123.64 108.891 123.459 109.638 123.096C110.385 122.733 111.025 122.264 111.558 121.688C112.241 120.941 112.902 119.992 113.542 118.84C114.182 117.667 114.801 116.472 115.398 115.256H116.934C118.257 115.256 119.334 115.267 120.166 115.288C121.019 115.288 121.777 115.32 122.438 115.384C122.694 115.405 122.961 115.341 123.238 115.192C123.515 115.043 123.761 114.872 123.974 114.68C123.419 115.789 122.918 116.803 122.47 117.72C122.043 118.637 121.734 119.341 121.542 119.832C121.414 120.173 121.35 120.515 121.35 120.856C121.35 121.539 121.585 122.125 122.054 122.616C122.545 123.085 123.121 123.32 123.782 123.32C124.657 123.32 125.435 123.139 126.118 122.776C126.993 122.285 127.761 121.667 128.422 120.92C129.083 120.152 129.617 119.48 130.022 118.904C130.086 118.797 130.118 118.68 130.118 118.552C130.118 118.403 130.086 118.328 130.022 118.328C130.001 118.328 129.958 118.371 129.894 118.456C129.51 118.968 129.009 119.597 128.39 120.344C127.771 121.069 127.078 121.645 126.31 122.072C126.033 122.221 125.713 122.36 125.35 122.488C125.009 122.616 124.667 122.68 124.326 122.68C123.857 122.68 123.537 122.552 123.366 122.296C123.195 122.04 123.11 121.741 123.11 121.4C123.11 121.229 123.121 121.059 123.142 120.888C123.185 120.696 123.217 120.525 123.238 120.376C123.345 119.949 123.569 119.341 123.91 118.552C124.251 117.741 124.667 116.845 125.158 115.864C125.649 114.861 126.171 113.837 126.726 112.792C127.302 111.747 127.867 110.755 128.422 109.816C128.977 108.856 129.489 108.024 129.958 107.32C130.449 106.595 130.843 106.083 131.142 105.784C131.505 105.4 131.803 105.176 132.038 105.112C132.273 105.027 132.497 104.984 132.71 104.984C133.137 104.984 133.35 104.931 133.35 104.824C133.35 104.76 133.286 104.696 133.158 104.632C133.051 104.568 132.945 104.536 132.838 104.536C132.475 104.536 132.059 104.621 131.59 104.792C131.142 104.963 130.683 105.155 130.214 105.368C129.766 105.581 129.361 105.763 128.998 105.912C128.699 106.296 128.283 106.925 127.75 107.8C127.238 108.653 126.683 109.624 126.086 110.712C125.489 111.8 124.902 112.899 124.326 114.008C124.049 114.136 123.643 114.232 123.11 114.296C122.598 114.36 122.246 114.392 122.054 114.392H117.35H116.87C116.614 114.371 116.283 114.349 115.878 114.328C116.219 113.667 116.593 112.952 116.998 112.184C117.403 111.416 117.777 110.712 118.118 110.072C118.459 109.432 118.694 108.995 118.822 108.76C119.291 107.949 119.814 107.288 120.39 106.776C120.966 106.264 121.585 105.976 122.246 105.912C122.289 105.912 122.342 105.88 122.406 105.816C122.491 105.731 122.534 105.645 122.534 105.56C122.534 105.475 122.47 105.432 122.342 105.432C122.321 105.432 122.299 105.443 122.278 105.464H122.182C121.819 105.528 121.339 105.571 120.742 105.592H118.63H115.078C114.63 105.592 114.118 105.613 113.542 105.656C112.966 105.677 112.401 105.763 111.846 105.912C111.291 106.04 110.833 106.264 110.47 106.584C110.107 106.883 109.926 107.309 109.926 107.864C109.926 108.077 109.958 108.312 110.022 108.568C110.086 108.845 110.257 109.197 110.534 109.624C110.811 110.029 111.046 110.285 111.238 110.392C111.302 110.413 111.366 110.403 111.43 110.36C111.515 110.317 111.558 110.275 111.558 110.232C111.558 110.211 111.547 110.189 111.526 110.168C111.227 109.933 111.078 109.549 111.078 109.016C111.078 108.632 111.163 108.28 111.334 107.96C111.505 107.64 111.782 107.373 112.166 107.16C112.55 106.947 112.987 106.776 113.478 106.648C114.566 106.349 115.707 106.189 116.902 106.168C118.118 106.147 119.291 106.115 120.422 106.072C119.953 106.157 119.494 106.371 119.046 106.712C118.619 107.053 118.225 107.448 117.862 107.896C117.521 108.323 117.243 108.749 117.03 109.176L115.782 111.672C115.355 112.547 114.907 113.411 114.438 114.264C113.905 114.243 113.361 114.232 112.806 114.232C112.273 114.211 111.825 114.189 111.462 114.168C111.291 114.189 111.067 114.275 110.79 114.424C110.534 114.573 110.289 114.744 110.054 114.936C109.819 115.128 109.659 115.288 109.574 115.416C109.489 115.544 109.542 115.597 109.734 115.576C110.353 115.469 111.035 115.405 111.782 115.384C112.529 115.341 113.243 115.309 113.926 115.288C113.414 116.269 112.913 117.187 112.422 118.04C111.953 118.893 111.473 119.587 110.982 120.12C110.385 120.781 109.734 121.325 109.03 121.752C108.326 122.179 107.601 122.392 106.854 122.392C106.107 122.392 105.478 122.136 104.966 121.624C104.475 121.112 104.23 120.355 104.23 119.352V118.968C104.251 118.84 104.262 118.712 104.262 118.584C104.262 118.541 104.241 118.52 104.198 118.52C104.07 118.52 103.985 118.584 103.942 118.712C103.921 118.84 103.91 118.979 103.91 119.128V119.544C103.91 119.843 103.921 120.152 103.942 120.472C103.985 120.792 104.059 121.091 104.166 121.368C104.465 122.115 104.913 122.68 105.51 123.064Z" fill="black"/>
</svg>
